<svg xmlns="http://www.w3.org/2000/svg" viewBox="0 0 1024 1024" role="img" aria-label="Tren Martínez">
  <defs>
    <linearGradient id="bg" x1="120" y1="80" x2="920" y2="960" gradientUnits="userSpaceOnUse">
      <stop stop-color="#0e3f6b"/>
      <stop offset="1" stop-color="#2b9fdb"/>
    </linearGradient>
    <linearGradient id="body" x1="330" y1="250" x2="700" y2="820" gradientUnits="userSpaceOnUse">
      <stop stop-color="#ffffff"/>
      <stop offset="1" stop-color="#e3eef6"/>
    </linearGradient>
  </defs>
  <rect width="1024" height="1024" rx="228" fill="url(#bg)"/>
  <!-- cuerpo del tren -->
  <rect x="332" y="250" width="360" height="470" rx="70" fill="url(#body)"/>
  <!-- ventanilla -->
  <rect x="384" y="316" width="256" height="150" rx="34" fill="#0e3f6b"/>
  <!-- faros -->
  <circle cx="420" cy="556" r="34" fill="#ffd45e"/>
  <circle cx="604" cy="556" r="34" fill="#ffd45e"/>
  <!-- trompa celeste -->
  <path d="M372 628h280l-40 78c-8 16-25 26-43 26H455c-18 0-35-10-43-26l-40-78Z" fill="#2b9fdb"/>
  <!-- patas -->
  <rect x="396" y="742" width="60" height="70" rx="16" fill="#0e3f6b"/>
  <rect x="568" y="742" width="60" height="70" rx="16" fill="#0e3f6b"/>
  <!-- via -->
  <rect x="250" y="828" width="524" height="26" rx="13" fill="#9fd2ef"/>
</svg>
